# xmcd
#
# Track frame offsets:
#   150
#   17076
#   33414
#   47464
#   60714
#   76896
#   94167
#   105687
#   120592
#   134763
#   150096
#   164060
#   179851
#   193570
#   208870
#   225196
#   239090
#   253062
#   270677
#   285443
#
# Disc length: 3966 seconds
#
# Revision: 0
# Processed by: cddbd v1.5.1PL0 Copyright (c) Steve Scherf et al.
# Submitted via: uFREEDB ActiveX Control 1.5
#
DISCID=190f7c14
DTITLE=CHICO REY E PARANA - EDIÇÃO ESPECIAL
DYEAR=1900
DGENRE=Country
TTITLE0=UM DEGRAU NA ESCADA
TTITLE1=ENCANTO E MAGIA
TTITLE2=ALMA TRANSPARENTE
TTITLE3=LAÇADA CERTEIRA
TTITLE4=CASAL NOTA MIL
TTITLE5=QUEM SERA SEU OUTRO AMOR
TTITLE6=COISINHA BELA
TTITLE7=ENTRE AMIGOS E WHISKY
TTITLE8=AMOR REBELDE
TTITLE9=TRANQUE A PORTA E ME BEIJE
TTITLE10=LIGUEI PRA DIZER QUE EU TE AMO
TTITLE11=EM FRENTE AO PORTÃO
TTITLE12=SACO DE OURO
TTITLE13=CANARINHO PRISIONEIRO
TTITLE14=BOMBA-RELOGIO
TTITLE15=SO VOCE
TTITLE16=LEAO DOMADO
TTITLE17=DE LA PRA CA
TTITLE18=BLUSA VERMELHA
TTITLE19=AMOR COM AMOR SE PAGA
EXTD=
EXTT0=
EXTT1=
EXTT2=
EXTT3=
EXTT4=
EXTT5=
EXTT6=
EXTT7=
EXTT8=
EXTT9=
EXTT10=
EXTT11=
EXTT12=
EXTT13=
EXTT14=
EXTT15=
EXTT16=
EXTT17=
EXTT18=
EXTT19=
PLAYORDER=
